<?xml version="1.0" encoding="UTF-8" standalone="no"?>
<!-- Generator: Adobe Illustrator 19.2.1, SVG Export Plug-In . SVG Version: 6.00 Build 0)  -->

<svg
   xmlns:dc="http://purl.org/dc/elements/1.1/"
   xmlns:cc="http://creativecommons.org/ns#"
   xmlns:rdf="http://www.w3.org/1999/02/22-rdf-syntax-ns#"
   xmlns:svg="http://www.w3.org/2000/svg"
   xmlns="http://www.w3.org/2000/svg"
   xmlns:sodipodi="http://sodipodi.sourceforge.net/DTD/sodipodi-0.dtd"
   xmlns:inkscape="http://www.inkscape.org/namespaces/inkscape"
   version="1.1"
   id="Layer_11"
   x="0px"
   y="0px"
   viewBox="0 0 49.999997 49.999997"
   xml:space="preserve"
   inkscape:version="0.91 r13725"
   sodipodi:docname="GSoC-icon1.svg"
   width="50"
   height="50"><metadata
     id="metadata15"><rdf:RDF><cc:Work
         rdf:about=""><dc:format>image/svg+xml</dc:format><dc:type
           rdf:resource="http://purl.org/dc/dcmitype/StillImage" /><dc:title></dc:title></cc:Work></rdf:RDF></metadata><defs
     id="defs13" /><sodipodi:namedview
     pagecolor="#ffffff"
     bordercolor="#666666"
     borderopacity="1"
     objecttolerance="10"
     gridtolerance="10"
     guidetolerance="10"
     inkscape:pageopacity="0"
     inkscape:pageshadow="2"
     inkscape:window-width="1920"
     inkscape:window-height="1017"
     id="namedview11"
     showgrid="false"
     inkscape:zoom="4.4131928"
     inkscape:cx="72.138047"
     inkscape:cy="29.679049"
     inkscape:window-x="0"
     inkscape:window-y="27"
     inkscape:window-maximized="1"
     inkscape:current-layer="Layer_11"
     units="px"
     width="50mm"
     borderlayer="false"
     inkscape:showpageshadow="false" /><style
     type="text/css"
     id="style3">
	.st0{fill:#FBBC05;}
</style><g
     id="g5"
     transform="matrix(0.28473804,0,0,0.28457598,-2.2397386,-2.2560023)"><path
       class="st0"
       d="m 158.1,33.7 -36.4,0 L 96,8 70.3,33.7 l -36.4,0 0,36.4 -25.7,25.8 25.7,25.7 0,36.4 36.4,0 25.7,25.7 25.7,-25.7 36.4,0 0,-36.4 25.7,-25.7 -25.7,-25.7 0,-36.5 z m 0.6,62.2 c 0,34.6 -28.1,62.7 -62.7,62.7 -34.6,0 -62.7,-28.1 -62.7,-62.7 0,-34.6 28.1,-62.7 62.7,-62.7 34.6,0 62.7,28.1 62.7,62.7 z"
       id="path7"
       inkscape:connector-curvature="0"
       style="fill:#fbbc05" /><path
       class="st0"
       d="m 96,41.2 c -30.2,0 -54.7,24.5 -54.7,54.7 0,30.2 24.5,54.7 54.7,54.7 30.2,0 54.7,-24.5 54.7,-54.7 0,-30.2 -24.5,-54.7 -54.7,-54.7 z m -16.1,34.4 0,9 -14.5,11.3 14.5,11.3 0,9 -1,-0.7 -21.5,-16.8 -1.4,-1.1 0,-3.4 1.4,-1.1 21.5,-16.7 1,-0.8 0,0 z m 25.8,-5.2 -11.9,52.6 -0.1,0.4 -7.4,0 0.4,-2 11.9,-52.5 0.1,-0.4 7.4,0 -0.4,1.9 z m 30.3,27.2 -1.4,1.1 -21.6,16.7 -1,0.7 0,-9 14.5,-11.3 -14.5,-11.3 0,-9 0,0 1,0.7 21.5,16.8 1.4,1.1 0,3.5 z"
       id="path9"
       inkscape:connector-curvature="0"
       style="fill:#fbbc05" /></g></svg>